<svg xmlns="http://www.w3.org/2000/svg" viewBox="0 0 442 220" width="442" height="220">
<g transform="translate(12,180) scale(0.2,-0.2)">
<path transform="translate(0,0)" d="M40 0V146H396L287 53V187Q287 255 274.0 291.5Q261 328 231.0 342.5Q201 357 147 357H66V503H147Q248 503 318.0 469.5Q388 436 423.5 366.0Q459 296 459 187V0Z" fill="#F3EEE3"/><path transform="translate(848,0)" d="M459 0V146H563V0ZM40 0V146H396L287 53V187Q287 255 274.0 291.5Q261 328 231.0 342.5Q201 357 147 357H66V503H147Q248 503 318.0 469.5Q388 436 423.5 366.0Q459 296 459 187V0ZM563 0V146Q568 146 571.5 141.0Q575 136 577.5 126.5Q580 117 581.5 103.5Q583 90 583 73Q583 56 581.5 42.5Q580 29 577.5 19.5Q575 10 571.5 5.0Q568 0 563 0Z" fill="#F3EEE3"/><path transform="translate(1411,0)" d="M-1 0V146H499L436 87V250Q436 294 427.0 317.5Q418 341 395.0 350.5Q372 360 329 360Q289 360 251.0 355.0Q213 350 191 341L299 440Q293 418 287.5 384.0Q282 350 278.5 312.0Q275 274 275 239Q275 209 278.0 173.0Q281 137 285.5 109.0Q290 81 292 71L129 26Q124 41 118.0 73.0Q112 105 108.0 148.0Q104 191 104 239Q104 289 108.5 335.5Q113 382 120.0 419.5Q127 457 133 479Q158 488 211.0 497.0Q264 506 329 506Q423 506 484.5 481.0Q546 456 577.0 400.0Q608 344 608 248V0ZM0 0Q-5 0 -9.0 5.0Q-13 10 -15.0 19.5Q-17 29 -18.5 42.5Q-20 56 -20 73Q-20 96 -18.0 112.0Q-16 128 -11.5 137.0Q-7 146 0 146Z" fill="#F3EEE3"/>
<path transform="translate(1587,-150)" d="M20 -7V44H259V-7Z" fill="#F3EEE3"/>

    <rect x="616.5" y="0" width="120" height="500" rx="34" fill="#F3EEE3"/>
    <path d="M616.5,500 L736.5,500 L676.5,700 Z" fill="#F3EEE3"/>
    <circle cx="676.5" cy="600" r="13" fill="white" opacity="0.55"/>
    <circle cx="676.5" cy="770" r="80" fill="#C9536B"/>
    
</g>
</svg>